<svg xmlns="http://www.w3.org/2000/svg" width="813" height="461" fill="none" viewBox="0 0 813 461">
  <path fill="#fff" d="M0 0h108.619v460.81H0z"/>
  <path fill="#fff" fill-rule="evenodd" d="M16.457 0C7.368 0 0 7.368 0 16.457v427.895c0 9.089 7.368 16.458 16.457 16.458h75.705c9.089 0 16.457-7.369 16.457-16.458V307.206H82.287c-9.089 0-16.457-7.368-16.457-16.457V0H16.457Z" clip-rule="evenodd"/>
  <path fill="#fff" d="M117.397 0h108.619v460.81H117.397z"/>
  <path fill="#fff" fill-rule="evenodd" d="M117.397 444.352V307.207h4.388c9.09 0 16.458-7.369 16.458-16.458V0h65.83v290.75c0 9.089 7.368 16.458 16.457 16.458h5.486v137.145c0 9.09-7.368 16.458-16.457 16.458h-75.705c-9.089 0-16.457-7.368-16.457-16.458Z" clip-rule="evenodd"/>
  <path fill="#fff" d="M343.413 0H234.794v460.81h108.619z"/>
  <path fill="#fff" fill-rule="evenodd" d="M277.583 0h65.83v444.352c0 9.09-7.368 16.458-16.458 16.458h-75.704c-9.089 0-16.457-7.368-16.457-16.458V307.207h26.332c9.089 0 16.457-7.369 16.457-16.458V0Z" clip-rule="evenodd"/>
  <path fill="#fff" d="M352.19 0h108.619v460.81H352.19z"/>
  <path fill="#fff" fill-rule="evenodd" d="M418.02 0h-65.83v444.352c0 9.09 7.369 16.458 16.458 16.458h75.704c9.089 0 16.458-7.368 16.458-16.458V307.207h-26.332c-9.09 0-16.458-7.369-16.458-16.458V0Z" clip-rule="evenodd"/>
  <path fill="#fff" d="M469.587 0h108.619v460.81H469.587z"/>
  <path fill="#fff" fill-rule="evenodd" d="M469.587 444.352V307.207h4.389c9.089 0 16.457-7.369 16.457-16.458V0h57.053v290.75c0 9.089 7.368 16.458 16.457 16.458h14.263v137.145c0 9.09-7.368 16.458-16.457 16.458h-75.704c-9.09 0-16.458-7.368-16.458-16.458Z" clip-rule="evenodd"/>
  <path fill="#fff" d="M696.7 0H588.081v460.81H696.7z"/>
  <path fill="#fff" fill-rule="evenodd" d="M696.7 444.352V307.207h-4.388c-9.09 0-16.458-7.369-16.458-16.458V0h-57.052v290.75c0 9.089-7.369 16.458-16.458 16.458h-14.263v137.145c0 9.09 7.368 16.458 16.457 16.458h75.705c9.089 0 16.457-7.368 16.457-16.458Z" clip-rule="evenodd"/>
  <path fill="#fff" d="M813 0H704.381v460.81H813z"/>
  <path fill="#fff" fill-rule="evenodd" d="M796.543 0C805.632 0 813 7.368 813 16.457v427.895c0 9.09-7.368 16.458-16.457 16.458h-75.705c-9.089 0-16.457-7.368-16.457-16.458V307.207h26.332c9.089 0 16.457-7.369 16.457-16.458V0h49.373Z" clip-rule="evenodd"/>
  <path fill="#fff" d="M71.316 0h61.441v301.721H71.316z"/>
  <path fill="#1F1F1F" d="M71.316 0h61.441v285.263c0 9.089-7.368 16.458-16.457 16.458H87.773c-9.089 0-16.457-7.369-16.457-16.458V0Z"/>
  <path fill="#fff" d="M209.559 0H271v301.721h-61.441z"/>
  <path fill="#1F1F1F" d="M209.559 0H271v285.263c0 9.089-7.368 16.458-16.457 16.458h-28.527c-9.089 0-16.457-7.369-16.457-16.458V0Z"/>
  <path fill="#fff" d="M423.506 0h61.441v301.721h-61.441z"/>
  <path fill="#1F1F1F" d="M423.506 0h61.441v285.263c0 9.089-7.368 16.458-16.457 16.458h-28.526c-9.09 0-16.458-7.369-16.458-16.458V0Z"/>
  <path fill="#fff" d="M551.875 0h61.441v301.721h-61.441z"/>
  <path fill="#1F1F1F" d="M551.875 0h61.441v285.263c0 9.089-7.368 16.458-16.458 16.458h-28.526c-9.089 0-16.457-7.369-16.457-16.458V0Z"/>
  <path fill="#fff" d="M681.34 0h61.441v301.721H681.34z"/>
  <path fill="#1F1F1F" d="M681.34 0h61.441v285.263c0 9.089-7.368 16.458-16.457 16.458h-28.526c-9.09 0-16.458-7.369-16.458-16.458V0Z"/>
</svg>
