<svg xmlns="http://www.w3.org/2000/svg" width="40" height="33" fill="none" viewBox="0 0 40 33">
  <path fill="#fff" d="M35.905 8.091c.024.353.024.706.024 1.062 0 10.843-8.255 23.35-23.35 23.35v-.007A23.232 23.232 0 0 1 0 28.817a16.478 16.478 0 0 0 12.145-3.401 8.217 8.217 0 0 1-7.666-5.7 8.18 8.18 0 0 0 3.705-.14A8.207 8.207 0 0 1 1.6 11.532v-.104a8.154 8.154 0 0 0 3.724 1.027 8.217 8.217 0 0 1-2.54-10.958A23.292 23.292 0 0 0 19.7 10.071a8.215 8.215 0 0 1 13.985-7.485 16.467 16.467 0 0 0 5.21-1.992 8.237 8.237 0 0 1-3.608 4.538A16.32 16.32 0 0 0 40 3.84a16.671 16.671 0 0 1-4.095 4.251Z"/>
</svg>
